# This file uses centimeters as units for non-parametric coordinates.

mtllib Star_LP.mtl
g default
v -1.549597 -0.000005 -0.951057
v -2.667631 -0.000005 -0.587785
v -2.667631 -0.000005 0.587785
v -1.549597 -0.000005 0.951056
v -0.858614 -0.000005 0.000000
v -1.549597 0.000005 -0.951057
v -2.667631 0.000005 -0.587785
v -2.667631 0.000005 0.587785
v -1.549597 0.000005 0.951056
v -0.858614 0.000005 0.000000
v -1.858614 -0.296414 0.000000
v -1.858614 0.296414 0.000000
v -1.552487 -0.120520 -0.433035
v -1.923914 -0.120520 -0.553719
v -2.203423 -0.120520 -0.462901
v -2.432978 -0.120520 -0.146946
v -2.432978 -0.120520 0.146946
v -2.203423 -0.120520 0.462901
v -1.923914 -0.120520 0.553719
v -1.552487 -0.120520 0.433035
v -1.379741 -0.120520 0.195271
v -1.379741 -0.120520 -0.195271
v -1.552487 0.120520 -0.433035
v -1.923914 0.120520 -0.553719
v -2.203423 0.120520 -0.462901
v -2.432978 0.120520 -0.146946
v -2.432978 0.120520 0.146946
v -2.203423 0.120520 0.462901
v -1.923914 0.120520 0.553719
v -1.552487 0.120520 0.433035
v -1.379741 0.120520 0.195271
v -1.379741 0.120520 -0.195271
v -1.553451 -0.080346 -0.260361
v -1.553451 0.080346 -0.260361
v -2.048687 -0.080346 -0.421273
v -2.048687 0.080346 -0.421273
v -2.354760 -0.080346 0.000000
v -2.354760 0.080346 0.000000
v -2.048687 -0.080346 0.421273
v -2.048687 0.080346 0.421273
v -1.553451 -0.080346 0.260361
v -1.553451 0.080346 0.260361
v -1.654524 -0.218182 -0.206612
v -2.230723 -0.194622 0.000000
v -2.012961 -0.220122 0.288806
v -1.654524 -0.218182 0.206612
v -1.658568 0.218789 -0.206717
v -2.001169 0.194622 -0.315955
v -2.230723 0.194622 0.000000
v -2.001168 0.194622 0.315955
v -1.658568 0.218789 0.206717
v -2.168404 0.251511 0.064071
v -2.179477 -0.249895 0.057957
v -2.179477 -0.249895 -0.057957
v -2.168404 0.251511 -0.064071
v -2.027556 0.247109 -0.252032
v -2.012961 -0.220122 -0.288806
v -2.027556 0.247109 0.252032
v -1.907074 0.249816 -0.294866
v -1.907074 0.249816 0.294866
v -1.915977 -0.248327 -0.303031
v -1.915977 -0.248327 0.303031
v -1.119178 0.060262 0.097635
v -1.119178 -0.060262 -0.097635
v -1.119178 0.060262 -0.097635
v -1.119178 -0.060262 0.097635
v -1.736756 -0.060262 -0.752388
v -1.736756 0.060262 -0.752388
v -1.736756 -0.060262 0.752388
v -1.736756 0.060262 0.752388
v -1.610186 0.244869 -0.116027
v -1.607004 -0.243585 -0.124944
v -1.610186 0.244869 0.116027
v -1.607004 -0.243585 0.124944
v -1.551042 -0.060262 -0.692046
v -1.551042 0.060262 -0.692046
v -1.551042 -0.060262 0.692046
v -1.551042 0.060262 0.692046
v -2.550304 0.060262 -0.367366
v -2.550304 -0.060262 -0.367366
v -2.550304 -0.060262 0.367366
v -2.550304 0.060262 0.367366
v -2.435527 -0.060262 0.525343
v -2.435527 -0.060262 -0.525343
v -2.435527 0.060262 0.525343
v -2.435527 0.060262 -0.525343
v -2.194606 -0.224320 -0.287061
v -2.194605 -0.224320 0.287061
vt 0.548284 0.007647
vt 0.373591 0.064409
vt 0.373591 0.248091
vt 0.548284 0.304853
vt 0.656250 0.156250
vt 0.400000 0.312500
vt 0.450000 0.312500
vt 0.500000 0.312500
vt 0.550000 0.312500
vt 0.600000 0.312500
vt 0.400000 0.687500
vt 0.450000 0.687500
vt 0.500000 0.687500
vt 0.550000 0.687500
vt 0.600000 0.687500
vt 0.548284 0.695147
vt 0.373591 0.751909
vt 0.373591 0.935591
vt 0.548284 0.992353
vt 0.656250 0.843750
vt 0.500000 0.156250
vt 0.500000 0.843750
vt 0.387500 0.312500
vt 0.587346 0.036028
vt 0.412500 0.312500
vt 0.500000 0.007647
vt 0.437500 0.312500
vt 0.412654 0.036028
vt 0.462500 0.312500
vt 0.358671 0.110329
vt 0.487500 0.312500
vt 0.358671 0.202171
vt 0.512500 0.312500
vt 0.412654 0.276472
vt 0.537500 0.312500
vt 0.500000 0.304853
vt 0.562500 0.312500
vt 0.587346 0.276472
vt 0.587500 0.312500
vt 0.641329 0.202171
vt 0.612500 0.312500
vt 0.641329 0.110329
vt 0.587346 0.963972
vt 0.387500 0.687500
vt 0.500000 0.992353
vt 0.412500 0.687500
vt 0.412654 0.963972
vt 0.437500 0.687500
vt 0.358671 0.889671
vt 0.462500 0.687500
vt 0.358671 0.797829
vt 0.487500 0.687500
vt 0.412654 0.723528
vt 0.512500 0.687500
vt 0.500000 0.695147
vt 0.537500 0.687500
vt 0.587346 0.723528
vt 0.562500 0.687500
vt 0.641329 0.797829
vt 0.587500 0.687500
vt 0.641329 0.889671
vt 0.612500 0.687500
vt 0.625000 0.437500
vt 0.375000 0.437500
vt 0.625000 0.562500
vt 0.375000 0.562500
vt 0.425000 0.437500
vt 0.425000 0.562500
vt 0.475000 0.437500
vt 0.475000 0.562500
vt 0.525000 0.437500
vt 0.525000 0.562500
vt 0.575000 0.437500
vt 0.575000 0.562500
vt 0.553439 0.103234
vt 0.421875 0.156250
vt 0.466092 0.223456
vt 0.553439 0.209266
vt 0.553439 0.896766
vt 0.475858 0.918051
vt 0.421875 0.843750
vt 0.475858 0.769449
vt 0.553439 0.790734
vt 0.429335 0.820790
vt 0.429335 0.179210
vt 0.429335 0.133290
vt 0.429335 0.866710
vt 0.456327 0.903861
vt 0.466092 0.089044
vt 0.456327 0.783639
vt 0.500000 0.918051
vt 0.500000 0.769449
vt 0.500000 0.081949
vt 0.500000 0.230551
vt 0.648790 0.820790
vt 0.593750 0.687500
vt 0.648790 0.133290
vt 0.606250 0.312500
vt 0.648790 0.866710
vt 0.606250 0.687500
vt 0.648790 0.179210
vt 0.593750 0.312500
vt 0.524142 0.007647
vt 0.406250 0.312500
vt 0.524142 0.992353
vt 0.406250 0.687500
vt 0.524142 0.304853
vt 0.543750 0.312500
vt 0.543750 0.687500
vt 0.524142 0.695147
vt 0.570665 0.866710
vt 0.570665 0.133290
vt 0.570665 0.820790
vt 0.570665 0.179210
vt 0.567815 0.021838
vt 0.393750 0.312500
vt 0.393750 0.687500
vt 0.567815 0.978162
vt 0.567815 0.290662
vt 0.556250 0.312500
vt 0.567815 0.709338
vt 0.556250 0.687500
vt 0.366131 0.912631
vt 0.456250 0.687500
vt 0.366131 0.087369
vt 0.456250 0.312500
vt 0.366131 0.225131
vt 0.493750 0.312500
vt 0.493750 0.687500
vt 0.366131 0.774869
vt 0.393122 0.262282
vt 0.506250 0.312500
vt 0.393122 0.050218
vt 0.443750 0.312500
vt 0.393122 0.737718
vt 0.506250 0.687500
vt 0.443750 0.687500
vt 0.393122 0.949782
vt 0.420994 0.084659
vt 0.420994 0.227841
vn -0.057079 -0.710136 -0.701747
vn -0.291521 -0.345975 -0.891805
vn -0.147470 -0.936385 -0.318491
vn -0.250233 -0.787861 -0.562724
vn -0.664096 -0.739902 -0.107335
vn -0.941932 -0.335804 0.000000
vn -0.518197 -0.855261 0.000000
vn -0.664096 -0.739903 0.107335
vn -0.250233 -0.787861 0.562724
vn -0.317247 -0.405111 0.857461
vn -0.172656 -0.922258 0.345876
vn -0.279040 -0.908156 0.312073
vn 0.434995 -0.761503 0.480513
vn 0.768558 -0.293633 0.568417
vn 0.249531 -0.916426 0.312886
vn 0.554788 -0.797274 0.237835
vn 0.554788 -0.797274 -0.237835
vn 0.768558 -0.293633 -0.568417
vn 0.249531 -0.916426 -0.312886
vn 0.429654 -0.796403 -0.425604
vn -0.116079 0.810245 -0.574482
vn -0.175380 0.855315 -0.487523
vn -0.287549 0.253000 -0.923746
vn -0.229565 0.803161 -0.549757
vn -0.571396 0.820427 -0.020147
vn -0.497931 0.867217 -0.000000
vn -0.962813 0.270168 0.000000
vn -0.571396 0.820427 0.020148
vn -0.229565 0.803161 0.549757
vn -0.175380 0.855315 0.487523
vn -0.287549 0.253000 0.923746
vn -0.116079 0.810244 0.574482
vn 0.420259 0.794779 0.437845
vn 0.255451 0.916342 0.308321
vn 0.780945 0.245793 0.574204
vn 0.540429 0.806469 0.239884
vn 0.540429 0.806469 -0.239884
vn 0.255451 0.916342 -0.308321
vn 0.780945 0.245793 -0.574204
vn 0.437440 0.783903 -0.440616
vn 0.073300 -0.971460 -0.225596
vn 0.073301 -0.971460 -0.225596
vn 0.335610 -0.936258 -0.103862
vn 0.033088 -0.999453 0.000000
vn 0.315879 -0.941491 0.117537
vn -0.209742 -0.965809 -0.152387
vn -0.209742 -0.965809 -0.152386
vn 0.046015 -0.950595 -0.307003
vn -0.209742 -0.965809 0.152387
vn -0.033255 -0.741782 0.669816
vn -0.241137 -0.969924 -0.033180
vn -0.241137 -0.969924 0.033180
vn -0.291206 -0.915809 -0.276573
vn 0.073300 -0.971460 0.225596
vn 0.046015 -0.950595 0.307003
vn 0.225312 -0.974287 0.000000
vn 0.225312 -0.974287 0.000000
vn 0.999985 0.000000 0.005580
vn 0.040779 0.999168 0.000000
vn 0.003717 0.956403 -0.292026
vn 0.225312 0.974287 0.000000
vn 0.225312 0.974287 0.000000
vn 0.335519 0.936186 -0.104802
vn 0.350757 0.000000 -0.936466
vn 0.350884 0.000000 -0.936419
vn 0.350884 0.000000 -0.936419
vn 0.350884 0.000000 -0.936419
vn 0.259789 -0.000000 -0.965665
vn -0.104291 0.952449 -0.286296
vn -0.294983 0.954085 -0.052029
vn 0.073301 0.971460 -0.225596
vn -0.728483 0.000000 -0.685064
vn -0.727877 -0.000000 -0.685707
vn -0.727878 -0.000001 -0.685707
vn -0.727878 -0.000001 -0.685707
vn -0.882736 0.000000 -0.469869
vn -0.294983 0.954085 0.052029
vn -0.104291 0.952448 0.286296
vn -0.209742 0.965809 -0.152386
vn -0.882882 0.000000 0.469596
vn -0.882736 0.000000 0.469870
vn -0.882736 0.000000 0.469869
vn -0.882736 0.000000 0.469870
vn -0.727877 -0.000000 0.685707
vn 0.003717 0.956403 0.292027
vn -0.209742 0.965809 0.152386
vn 0.259975 0.000000 0.965615
vn 0.259789 -0.000000 0.965665
vn 0.259790 -0.000000 0.965665
vn 0.259790 -0.000000 0.965665
vn 0.350884 -0.000000 0.936419
vn 0.312798 0.942105 0.120811
vn 0.073301 0.971460 0.225596
vn 0.999985 0.000000 -0.005574
vn 0.999985 0.000000 -0.005580
vn 0.999985 0.000000 -0.005580
vn 0.999984 0.000000 -0.005580
vn 0.350884 -0.000000 0.936419
vn 0.350757 0.000000 0.936466
vn 0.350884 -0.000000 0.936419
vn 0.225312 0.974287 0.000000
vn 0.225312 -0.974287 0.000000
vn -0.727878 -0.000001 0.685707
vn -0.728483 0.000000 0.685064
vn -0.727878 -0.000001 0.685707
vn 0.073301 0.971460 -0.225596
vn 0.073300 -0.971460 0.225596
vn 0.073300 -0.971460 0.225596
vn 0.073301 0.971460 0.225596
vn 0.999985 0.000000 0.005580
vn 0.999985 0.000000 0.005574
vn 0.999984 0.000000 0.005580
vn 0.073300 -0.971460 -0.225596
vn 0.073301 0.971460 -0.225596
vn 0.073301 0.971460 0.225596
vn -0.882736 0.000000 -0.469869
vn -0.882882 0.000000 -0.469595
vn -0.882736 0.000000 -0.469869
vn -0.209742 0.965809 -0.152387
vn -0.209742 -0.965809 0.152386
vn -0.209742 -0.965809 0.152386
vn -0.209742 0.965809 0.152386
vn 0.259790 -0.000001 -0.965665
vn 0.259877 0.000000 -0.965642
vn 0.259789 -0.000000 -0.965665
vn -0.209742 -0.965809 -0.152387
vn -0.209742 0.965809 0.152386
vn -0.209742 0.965809 -0.152387
s 1
g Start_LP
usemtl initialShadingGroup
f 15/27/1 35/67/2 57/89/3
f 57/89/3 35/67/2 14/26/4
f 17/31/5 37/69/6 44/76/7
f 44/76/7 37/69/6 16/30/8
f 19/35/9 39/71/10 45/77/11
f 45/77/11 39/71/10 88/140/12
f 21/39/13 41/73/14 46/78/15
f 46/78/15 41/73/14 20/38/16
f 13/23/17 33/63/18 43/75/19
f 43/75/19 33/63/18 22/42/20
f 25/47/21 48/80/22 36/68/23
f 36/68/23 48/80/22 24/46/24
f 27/51/25 49/81/26 38/70/27
f 38/70/27 49/81/26 26/50/28
f 29/55/29 50/82/30 40/72/31
f 40/72/31 50/82/30 28/54/32
f 31/59/33 51/83/34 42/74/35
f 42/74/35 51/83/34 30/58/36
f 23/43/37 47/79/38 34/66/39
f 34/66/39 47/79/38 32/62/40
f 75/115/41 13/24/17 67/103/42
f 43/75/19 72/112/43 11/21/44
f 11/21/44 72/112/43 74/114/45
f 84/133/46 15/28/1 80/125/47
f 57/89/3 61/93/48 11/21/44
f 43/75/19 61/93/48 13/24/17
f 81/127/49 17/32/5 18/34/50
f 53/85/51 17/32/5 44/76/7
f 44/76/7 54/86/52 11/21/44
f 57/89/3 87/139/53 15/28/1
f 69/107/54 19/36/9 20/38/16
f 62/94/55 19/36/9 45/77/11
f 88/140/12 18/34/50 17/32/5
f 66/101/56 21/40/13 64/97/57
f 11/21/44 74/114/45 46/78/15
f 62/94/55 20/38/16 19/36/9
f 33/64/18 13/23/17 34/66/39
f 75/116/58 23/44/37 13/23/17
f 13/23/17 23/44/37 34/66/39
f 12/22/59 47/79/38 59/91/60
f 65/99/61 32/61/40 63/95/62
f 71/111/63 32/61/40 47/79/38
f 5/10/64 64/98/65 10/15/66
f 33/63/18 34/65/39 22/41/20
f 65/100/67 64/98/65 32/62/40
f 22/41/20 34/65/39 32/62/40
f 35/67/2 15/27/1 36/68/23
f 84/134/68 25/48/21 15/27/1
f 15/27/1 25/48/21 36/68/23
f 48/80/22 56/88/69 12/22/59
f 12/22/59 56/88/69 55/87/70
f 68/105/71 24/45/24 23/43/37
f 12/22/59 59/91/60 48/80/22
f 1/6/72 67/104/73 6/11/74
f 35/67/2 36/68/23 14/25/4
f 68/106/75 67/104/73 24/46/24
f 14/25/4 36/68/23 24/46/24
f 37/69/6 17/31/5 38/70/27
f 81/128/76 27/52/25 17/31/5
f 17/31/5 27/52/25 38/70/27
f 49/81/26 52/84/77 12/22/59
f 12/22/59 52/84/77 58/90/78
f 79/123/79 26/49/28 25/47/21
f 12/22/59 55/87/70 49/81/26
f 2/7/80 80/126/81 7/12/82
f 37/69/6 38/70/27 16/29/8
f 79/124/83 80/126/81 26/50/28
f 16/29/8 38/70/27 26/50/28
f 39/71/10 19/35/9 40/72/31
f 69/108/84 29/56/29 19/35/9
f 19/35/9 29/56/29 40/72/31
f 50/82/30 60/92/85 12/22/59
f 12/22/59 60/92/85 51/83/34
f 82/130/86 28/53/32 27/51/25
f 12/22/59 58/90/78 50/82/30
f 3/8/87 83/132/88 8/13/89
f 39/71/10 40/72/31 18/33/50
f 85/136/90 83/132/88 28/54/32
f 18/33/50 40/72/31 28/54/32
f 41/73/14 21/39/13 42/74/35
f 66/102/91 31/60/33 21/39/13
f 21/39/13 31/60/33 42/74/35
f 51/83/34 73/113/92 12/22/59
f 71/111/63 31/59/33 32/61/40
f 70/110/93 30/57/36 29/55/29
f 4/9/94 77/120/95 9/14/96
f 41/73/14 42/74/35 20/37/16
f 78/122/97 77/120/95 30/58/36
f 20/37/16 42/74/35 30/58/36
f 27/51/25 52/84/77 49/81/26
f 52/84/77 27/51/25 28/53/32
f 11/21/44 53/85/51 44/76/7
f 53/85/51 11/21/44 45/77/11
f 16/30/8 54/86/52 44/76/7
f 87/139/53 16/30/8 15/28/1
f 26/49/28 55/87/70 25/47/21
f 55/87/70 26/49/28 49/81/26
f 25/47/21 56/88/69 48/80/22
f 56/88/69 25/47/21 55/87/70
f 57/89/3 11/21/44 54/86/52
f 28/53/32 58/90/78 52/84/77
f 58/90/78 28/53/32 50/82/30
f 39/71/10 18/34/50 88/140/12
f 24/45/24 59/91/60 23/43/37
f 59/91/60 24/45/24 48/80/22
f 29/55/29 60/92/85 50/82/30
f 60/92/85 29/55/29 30/57/36
f 14/26/4 61/93/48 57/89/3
f 61/93/48 14/26/4 13/24/17
f 11/21/44 62/94/55 45/77/11
f 62/94/55 11/21/44 46/78/15
f 64/98/65 22/41/20 32/62/40
f 10/15/98 66/102/91 5/10/99
f 66/102/91 10/15/98 63/96/100
f 31/59/33 63/95/62 32/61/40
f 63/96/100 31/60/33 66/102/91
f 22/42/20 64/97/57 21/40/13
f 10/20/101 65/99/61 63/95/62
f 65/100/67 10/15/66 64/98/65
f 5/5/102 66/101/56 64/97/57
f 67/104/73 14/25/4 24/46/24
f 9/14/103 69/108/84 4/9/104
f 69/108/84 70/109/105 29/56/29
f 14/26/4 67/103/42 13/24/17
f 76/118/106 68/105/71 23/43/37
f 68/106/75 6/11/74 67/104/73
f 4/4/107 69/107/54 77/119/108
f 9/14/103 70/109/105 69/108/84
f 70/110/93 78/121/109 30/57/36
f 43/75/19 11/21/44 61/93/48
f 46/78/15 20/38/16 62/94/55
f 47/79/38 23/43/37 59/91/60
f 30/57/36 51/83/34 60/92/85
f 12/22/59 71/111/63 47/79/38
f 71/111/63 12/22/59 73/113/92
f 22/42/20 72/112/43 43/75/19
f 72/112/43 22/42/20 21/40/13
f 31/59/33 73/113/92 51/83/34
f 73/113/92 31/59/33 71/111/63
f 21/40/13 74/114/45 72/112/43
f 74/114/45 21/40/13 46/78/15
f 6/11/110 75/116/58 1/6/111
f 75/116/58 76/117/112 23/44/37
f 77/120/95 20/37/16 30/58/36
f 1/1/113 75/115/41 67/103/42
f 6/11/110 76/117/112 75/116/58
f 76/118/106 6/19/114 68/105/71
f 20/38/16 77/119/108 69/107/54
f 9/16/115 78/121/109 70/110/93
f 78/122/97 9/14/96 77/120/95
f 80/126/81 16/29/8 26/50/28
f 8/13/116 81/128/76 3/8/117
f 81/128/76 82/129/118 27/52/25
f 86/138/119 79/123/79 25/47/21
f 79/124/83 7/12/82 80/126/81
f 16/30/8 80/125/47 15/28/1
f 3/3/120 81/127/49 83/131/121
f 8/13/116 82/129/118 81/128/76
f 82/130/86 85/135/122 28/53/32
f 83/132/88 18/33/50 28/54/32
f 7/12/123 84/134/68 2/7/124
f 84/134/68 86/137/125 25/48/21
f 18/34/50 83/131/121 81/127/49
f 2/2/126 84/133/46 80/125/47
f 8/17/127 85/135/122 82/130/86
f 85/136/90 8/13/89 83/132/88
f 7/12/123 86/137/125 84/134/68
f 86/138/119 7/18/128 79/123/79
f 54/86/52 87/139/53 57/89/3
f 87/139/53 54/86/52 16/30/8
f 53/85/51 88/140/12 17/32/5
f 88/140/12 53/85/51 45/77/11
