# This file uses centimeters as units for non-parametric coordinates.

mtllib Bullet_LP.mtl
g default
v -2.299574 0.002692 -0.508889
v -2.732461 0.002692 -0.823399
v -3.508889 0.002692 -0.700425
v -3.865773 0.002692 0.000000
v -3.823399 0.002692 0.267539
v -3.700425 0.002692 0.508889
v -3.267539 0.002692 0.823399
v -3.000000 0.002692 0.865773
v -2.732461 0.002692 0.823399
v -2.299575 0.002692 0.508889
v -2.176601 0.002692 0.267539
v -2.134227 0.002692 0.000000
v -2.724664 0.522313 -0.847398
v -3.523721 0.522313 -0.720840
v -3.891007 0.522313 0.000000
v -3.847398 0.522313 0.275336
v -3.720840 0.522313 0.523721
v -3.275336 0.522313 0.847398
v -3.000000 0.522313 0.891007
v -2.724664 0.522313 0.847398
v -2.279161 0.522313 0.523721
v -2.152602 0.522313 0.275336
v -2.108993 0.522313 0.000000
v -2.690983 1.430294 -0.951057
v -3.587785 1.430294 -0.809017
v -4.000000 1.430294 0.000000
v -3.951057 1.430294 0.309017
v -3.809017 1.430294 0.587785
v -3.309017 1.430294 0.951057
v -3.000000 1.430294 1.000000
v -2.690983 1.430294 0.951057
v -2.190983 1.430294 0.587785
v -2.048943 1.430294 0.309017
v -2.000000 1.430294 0.000000
v -2.781492 2.844507 -0.672499
v -3.415627 2.844507 -0.572062
v -3.707107 2.844507 0.000000
v -3.672499 2.844507 0.218508
v -3.572062 2.844507 0.415627
v -3.218508 2.844507 0.672499
v -3.000000 2.844507 0.707107
v -2.781492 2.844507 0.672499
v -2.427939 2.844507 0.415627
v -2.327501 2.844507 0.218508
v -2.292893 2.844507 0.000000
v -2.818364 3.048328 -0.559017
v -3.345492 3.048328 -0.475528
v -3.587785 3.048328 0.000000
v -3.559017 3.048328 0.181636
v -3.475528 3.048328 0.345492
v -3.181636 3.048328 0.559017
v -3.000000 3.048328 0.587785
v -2.818364 3.048328 0.559017
v -2.524472 3.048328 0.345492
v -2.440983 3.048328 0.181636
v -2.412215 3.048328 0.000000
v -2.859709 3.212307 -0.431771
v -3.266849 3.212307 -0.367286
v -3.453991 3.212307 0.000000
v -3.431771 3.212307 0.140291
v -3.367286 3.212307 0.266849
v -3.140291 3.212307 0.431771
v -3.000000 3.212307 0.453991
v -2.859709 3.212307 0.431771
v -2.632714 3.212307 0.266849
v -2.568229 3.212307 0.140291
v -2.546009 3.212307 0.000000
v -2.904508 3.332407 -0.293893
v -3.181636 3.332407 -0.250000
v -3.309017 3.332407 0.000000
v -3.293893 3.332407 0.095492
v -3.250000 3.332407 0.181636
v -3.095492 3.332407 0.293893
v -3.000000 3.332407 0.309017
v -2.904509 3.332407 0.293893
v -2.750000 3.332407 0.181636
v -2.706107 3.332407 0.095492
v -2.690983 3.332407 0.000000
v -2.738265 0.378660 -0.805537
v -3.497849 0.378660 -0.685231
v -3.846992 0.378660 0.000000
v -3.805537 0.378660 0.261735
v -3.685231 0.378660 0.497849
v -3.261735 0.378660 0.805537
v -3.000000 0.378660 0.846991
v -2.738265 0.378660 0.805537
v -2.314770 0.378660 0.497849
v -2.194463 0.378660 0.261735
v -2.153009 0.378660 0.000000
v -2.732461 0.002692 -0.823399
vt 0.992283 0.515477
vt 0.360326 0.626999
vt 0.471848 0.626999
vt 0.583370 0.626999
vt 0.620544 0.626999
vt 0.657718 0.626999
vt 0.732066 0.626999
vt 0.769240 0.626999
vt 0.806413 0.626999
vt 0.880761 0.626999
vt 0.917935 0.626999
vt 0.955109 0.626999
vt 0.992283 0.626999
vt 0.360326 0.812869
vt 0.471848 0.812869
vt 0.583370 0.812869
vt 0.620544 0.812869
vt 0.657718 0.812869
vt 0.732066 0.812869
vt 0.769240 0.812869
vt 0.806413 0.812869
vt 0.880761 0.812869
vt 0.917935 0.812869
vt 0.955109 0.812869
vt 0.992283 0.812869
vt 0.360326 0.850043
vt 0.471848 0.850043
vt 0.583370 0.850043
vt 0.620544 0.850043
vt 0.657718 0.850043
vt 0.732066 0.850043
vt 0.769240 0.850043
vt 0.806413 0.850043
vt 0.880761 0.850043
vt 0.917935 0.850043
vt 0.955109 0.850043
vt 0.992283 0.850043
vt 0.360326 0.887217
vt 0.471848 0.887217
vt 0.583370 0.887217
vt 0.620544 0.887217
vt 0.657718 0.887217
vt 0.732066 0.887217
vt 0.769240 0.887217
vt 0.806413 0.887217
vt 0.880761 0.887217
vt 0.917935 0.887217
vt 0.955109 0.887217
vt 0.992283 0.887217
vt 0.360326 0.924391
vt 0.471848 0.924391
vt 0.583370 0.924391
vt 0.620544 0.924391
vt 0.657718 0.924391
vt 0.732066 0.924391
vt 0.769240 0.924391
vt 0.806413 0.924391
vt 0.880761 0.924391
vt 0.917935 0.924391
vt 0.955109 0.924391
vt 0.992283 0.924391
vt 0.453261 0.998738
vt 0.564783 0.998738
vt 0.601957 0.998738
vt 0.639131 0.998738
vt 0.713479 0.998738
vt 0.750652 0.998738
vt 0.787826 0.998738
vt 0.862174 0.998738
vt 0.899348 0.998738
vt 0.584653 0.072627
vt 0.360326 0.495521
vt 0.182699 0.006570
vt 0.471848 0.441129
vt 0.471848 0.495521
vt 0.583370 0.441129
vt 0.583370 0.495521
vt 0.620544 0.441129
vt 0.620544 0.495521
vt 0.657718 0.441129
vt 0.657718 0.495521
vt 0.732066 0.441129
vt 0.732066 0.495521
vt 0.769240 0.441129
vt 0.769240 0.495521
vt 0.806413 0.441129
vt 0.806413 0.495521
vt 0.880761 0.441129
vt 0.880761 0.495521
vt 0.917935 0.441129
vt 0.917935 0.495521
vt 0.975384 0.013885
vt 0.034189 0.280093
vt 0.360326 0.515477
vt 0.471848 0.515477
vt 0.583370 0.515477
vt 0.620544 0.515477
vt 0.657718 0.515477
vt 0.732066 0.515477
vt 0.769240 0.515477
vt 0.806413 0.515477
vt 0.880761 0.515477
vt 0.955109 0.495521
vt 0.917935 0.515477
vt 0.955109 0.515477
vt 0.052847 0.292459
vt 0.542244 0.292459
vt -0.007896 0.867522
vt 0.982700 0.079728
vt 0.955109 0.495521
vt 0.955109 0.495521
vt 0.955109 0.515477
vt 0.955109 0.515477
vt 0.955109 0.515477
vt 0.917935 0.495521
vt 0.917935 0.495521
vt 0.917935 0.495521
vt 0.917935 0.515477
vt 0.917935 0.515477
vt 0.917935 0.515477
vt 0.880761 0.495521
vt 0.880761 0.495521
vt 0.880761 0.495521
vt 0.880761 0.515477
vt 0.880761 0.515477
vt 0.880761 0.515477
vt 0.806413 0.495521
vt 0.806413 0.495521
vt 0.806413 0.495521
vt 0.806413 0.515477
vt 0.806413 0.515477
vt 0.806413 0.515477
vt 0.769240 0.495521
vt 0.769240 0.495521
vt 0.769240 0.495521
vt 0.769240 0.515477
vt 0.769240 0.515477
vt 0.769240 0.515477
vt 0.732066 0.495521
vt 0.732066 0.495521
vt 0.732066 0.495521
vt 0.732066 0.515477
vt 0.732066 0.515477
vt 0.732066 0.515477
vt 0.657718 0.495521
vt 0.657718 0.495521
vt 0.657718 0.495521
vt 0.657718 0.515477
vt 0.657718 0.515477
vt 0.657718 0.515477
vt 0.620544 0.495521
vt 0.620544 0.495521
vt 0.620544 0.495521
vt 0.620544 0.515477
vt 0.620544 0.515477
vt 0.620544 0.515477
vt 0.583370 0.495521
vt 0.583370 0.495521
vt 0.583370 0.495521
vt 0.583370 0.515477
vt 0.583370 0.515477
vt 0.583370 0.515477
vt 0.471848 0.495521
vt 0.362543 0.997534
vt 0.471848 0.495521
vt 0.471848 0.515477
vt 0.471848 0.515477
vt 0.471848 0.515477
vt 0.212543 0.997534
vt 0.992283 0.495521
vt 0.992283 0.515477
vt 0.360326 0.515477
vt 0.955109 0.441129
vt 0.888865 0.214823
vt 0.917935 0.441129
vt 0.838865 0.214823
vt 0.880761 0.441129
vt 0.738865 0.214823
vt 0.806413 0.441129
vt 0.688865 0.214823
vt 0.769240 0.441129
vt 0.638865 0.214823
vt 0.732066 0.441129
vt 0.538865 0.214823
vt 0.657718 0.441129
vt 0.488865 0.214823
vt 0.620544 0.441129
vt 0.438865 0.214823
vt 0.583370 0.441129
vt 0.288865 0.214823
vt 0.880761 0.924391
vt 0.880761 0.924391
vt 0.880761 0.924391
vt 0.955109 0.924391
vt 0.806413 0.924391
vt 0.806413 0.924391
vt 0.806413 0.924391
vt 0.769240 0.924391
vt 0.769240 0.924391
vt 0.769240 0.924391
vt 0.732066 0.924391
vt 0.732066 0.924391
vt 0.732066 0.924391
vt 0.657718 0.924391
vt 0.657718 0.924391
vt 0.657718 0.924391
vt 0.620544 0.924391
vt 0.620544 0.924391
vt 0.620544 0.924391
vt 0.583370 0.924391
vt 0.583370 0.924391
vt 0.583370 0.924391
vt 0.471848 0.924391
vt 0.471848 0.924391
vt 0.471848 0.924391
vt 0.360326 0.924391
vt 0.955109 0.887217
vt 0.955109 0.887217
vt 0.955109 0.887217
vt 0.917935 0.887217
vt 0.917935 0.887217
vt 0.917935 0.887217
vt 0.917935 0.924391
vt 0.917935 0.924391
vt 0.880761 0.887217
vt 0.880761 0.887217
vt 0.880761 0.887217
vt 0.806413 0.887217
vt 0.806413 0.887217
vt 0.806413 0.887217
vt 0.769240 0.887217
vt 0.769240 0.887217
vt 0.769240 0.887217
vt 0.732066 0.887217
vt 0.732066 0.887217
vt 0.732066 0.887217
vt 0.657718 0.887217
vt 0.657718 0.887217
vt 0.657718 0.887217
vt 0.620544 0.887217
vt 0.620544 0.887217
vt 0.620544 0.887217
vt 0.583370 0.887217
vt 0.583370 0.887217
vt 0.583370 0.887217
vt 0.471848 0.887217
vt 0.471848 0.887217
vt 0.471848 0.887217
vt 0.360326 0.887217
vt 0.992283 0.887217
vt 0.955109 0.850043
vt 0.955109 0.850043
vt 0.955109 0.850043
vt 0.917935 0.850043
vt 0.917935 0.850043
vt 0.917935 0.850043
vt 0.880761 0.850043
vt 0.880761 0.850043
vt 0.880761 0.850043
vt 0.806413 0.850043
vt 0.806413 0.850043
vt 0.806413 0.850043
vt 0.769240 0.850043
vt 0.769240 0.850043
vt 0.769240 0.850043
vt 0.732066 0.850043
vt 0.732066 0.850043
vt 0.732066 0.850043
vt 0.657718 0.850043
vt 0.657718 0.850043
vt 0.657718 0.850043
vt 0.620544 0.850043
vt 0.620544 0.850043
vt 0.620544 0.850043
vt 0.583370 0.850043
vt 0.583370 0.850043
vt 0.583370 0.850043
vt 0.471848 0.850043
vt 0.471848 0.850043
vt 0.471848 0.850043
vt 0.360326 0.850043
vt 0.992283 0.850043
vt 0.955109 0.812869
vt 0.955109 0.812869
vt 0.955109 0.812869
vt 0.917935 0.812869
vt 0.917935 0.812869
vt 0.917935 0.812869
vt 0.880761 0.812869
vt 0.880761 0.812869
vt 0.880761 0.812869
vt 0.806413 0.812869
vt 0.806413 0.812869
vt 0.806413 0.812869
vt 0.769240 0.812869
vt 0.769240 0.812869
vt 0.769240 0.812869
vt 0.732066 0.812869
vt 0.732066 0.812869
vt 0.732066 0.812869
vt 0.657718 0.812869
vt 0.657718 0.812869
vt 0.657718 0.812869
vt 0.620544 0.812869
vt 0.620544 0.812869
vt 0.620544 0.812869
vt 0.583370 0.812869
vt 0.583370 0.812869
vt 0.583370 0.812869
vt 0.471848 0.812869
vt 0.471848 0.812869
vt 0.471848 0.812869
vt 0.360326 0.812869
vt 0.992283 0.812869
vt 0.955109 0.626999
vt 0.955109 0.626999
vt 0.955109 0.626999
vt 0.917935 0.626999
vt 0.917935 0.626999
vt 0.917935 0.626999
vt 0.880761 0.626999
vt 0.880761 0.626999
vt 0.880761 0.626999
vt 0.806413 0.626999
vt 0.806413 0.626999
vt 0.806413 0.626999
vt 0.769240 0.626999
vt 0.769240 0.626999
vt 0.769240 0.626999
vt 0.732066 0.626999
vt 0.732066 0.626999
vt 0.732066 0.626999
vt 0.657718 0.626999
vt 0.657718 0.626999
vt 0.657718 0.626999
vt 0.620544 0.626999
vt 0.620544 0.626999
vt 0.620544 0.626999
vt 0.583370 0.626999
vt 0.583370 0.626999
vt 0.583370 0.626999
vt 0.471848 0.626999
vt 0.471848 0.626999
vt 0.471848 0.626999
vt 0.360326 0.626999
vt 0.992283 0.626999
vt 0.097510 0.729192
vt 0.020993 0.781856
vt 0.873865 0.214823
vt 0.144797 0.010437
vt 0.005472 0.012323
vt 0.347543 0.931692
vn 0.451126 -0.137800 -0.881758
vn -0.582006 -0.139890 -0.801062
vn -0.586386 0.068951 -0.807092
vn 0.448881 0.067817 -0.891015
vn -0.942081 -0.133503 -0.307668
vn -0.950212 0.066038 -0.304527
vn -0.941498 -0.141420 0.305911
vn -0.948704 0.070292 0.308253
vn -0.699745 -0.139186 0.700703
vn -0.706682 0.069016 0.704157
vn -0.450174 -0.139186 0.882026
vn -0.451317 0.069016 0.889691
vn 0.000000 -0.141420 0.989950
vn -0.000000 0.070292 0.997526
vn 0.450175 -0.139186 0.882026
vn 0.451317 0.069016 0.889691
vn 0.699745 -0.139186 0.700702
vn 0.706682 0.069016 0.704157
vn 0.941498 -0.141420 0.305911
vn 0.948704 0.070292 0.308253
vn 0.883008 -0.124618 -0.452512
vn 0.892184 0.061543 -0.447461
vn -0.571849 0.231276 -0.787083
vn 0.444882 0.227520 -0.866207
vn -0.926573 0.221355 -0.304080
vn -0.924364 0.235255 0.300344
vn -0.687034 0.231132 0.688885
vn -0.442863 0.231132 0.866286
vn -0.000000 0.235255 0.971934
vn 0.442863 0.231132 0.866285
vn 0.687034 0.231132 0.688885
vn 0.924364 0.235255 0.300344
vn 0.869796 0.206401 -0.448167
vn -0.491021 0.549681 -0.675832
vn 0.382213 0.543145 -0.747600
vn -0.804847 0.532196 -0.262658
vn -0.790184 0.556499 0.256747
vn -0.590466 0.549431 0.591165
vn -0.379766 0.549431 0.744247
vn -0.000000 0.556499 0.830849
vn 0.379766 0.549431 0.744247
vn 0.590466 0.549431 0.591164
vn 0.790184 0.556499 0.256746
vn 0.768431 0.504689 -0.393451
vn -0.433158 0.675966 -0.596191
vn 0.339761 0.668910 -0.661152
vn -0.714158 0.659523 -0.234538
vn -0.692884 0.685001 0.225132
vn -0.519427 0.677369 0.520928
vn -0.334920 0.677369 0.654981
vn 0.000000 0.685001 0.728542
vn 0.334920 0.677369 0.654980
vn 0.519427 0.677369 0.520928
vn 0.692884 0.685001 0.225132
vn 0.689617 0.630846 -0.355614
vn -0.238214 0.914195 -0.327875
vn 0.231852 0.869253 -0.436628
vn -0.364154 0.922980 -0.124494
vn -0.308986 0.945753 0.100396
vn -0.267230 0.924714 0.271095
vn -0.168993 0.930191 0.325862
vn 0.000000 0.907068 0.420984
vn 0.240377 0.852866 0.463508
vn 0.378954 0.841785 0.384437
vn 0.582017 0.790882 0.189109
vn 0.434990 0.869402 -0.234357
vn 0.811709 0.295956 -0.503526
vn 0.036819 0.047992 -0.998169
vn 0.322506 -0.023983 -0.946264
vn -0.587053 0.049893 -0.808009
vn -0.586914 -0.054418 -0.807818
vn -0.950340 0.047474 -0.307570
vn -0.949009 -0.050900 -0.311112
vn -0.949872 0.049893 0.308632
vn -0.949806 -0.051257 0.308611
vn -0.706615 0.049284 0.705880
vn -0.705316 -0.051680 0.707007
vn -0.452976 0.049284 0.890160
vn -0.454449 -0.051680 0.889273
vn 0.000000 0.049893 0.998755
vn 0.000000 -0.051257 0.998685
vn 0.452976 0.049284 0.890160
vn 0.454449 -0.051680 0.889272
vn 0.706615 0.049284 0.705880
vn 0.705316 -0.051680 0.707007
vn 0.949872 0.049893 0.308632
vn 0.949806 -0.051257 0.308611
vn 0.908075 0.260739 -0.327743
vn 0.920052 0.085947 -0.382252
vn 0.000000 0.000000 0.000000
vn 0.000000 0.000000 0.000000
vn 0.000000 0.000000 0.000000
vn 0.000000 -1.000000 -0.000000
vn 0.000000 -1.000000 -0.000000
vn 0.000000 -1.000000 -0.000000
vn 0.000000 -1.000000 -0.000000
vn 0.000000 -1.000000 -0.000000
vn 0.000000 -1.000000 -0.000000
vn 0.000000 -1.000000 -0.000000
vn 0.000000 -1.000000 -0.000000
vn 0.000000 -1.000000 -0.000000
vn 0.000000 -1.000000 -0.000000
vn 0.000000 -1.000000 -0.000000
vn 0.000000 -0.000000 -0.000000
vn 0.000000 -0.000000 -0.000000
s 1
g Bullet2_LP
usemtl initialShadingGroup
f 13/94/1 14/166/2 25/343/3 24/345/4
f 14/167/2 15/160/5 26/340/6 25/342/3
f 15/161/5 16/154/7 27/337/8 26/339/6
f 16/155/7 17/148/9 28/334/10 27/336/8
f 17/149/9 18/142/11 29/331/12 28/333/10
f 18/143/11 19/136/13 30/328/14 29/330/12
f 19/137/13 20/130/15 31/325/16 30/327/14
f 20/131/15 21/124/17 32/322/18 31/324/16
f 21/125/17 22/118/19 33/319/20 32/321/18
f 22/119/19 23/112/21 34/316/22 33/318/20
f 23/113/21 13/171/1 24/13/4 34/315/22
f 24/2/4 25/344/3 36/311/23 35/313/24
f 25/3/3 26/341/6 37/308/25 36/310/23
f 26/4/6 27/338/8 38/305/26 37/307/25
f 27/5/8 28/335/10 39/302/27 38/304/26
f 28/6/10 29/332/12 40/299/28 39/301/27
f 29/7/12 30/329/14 41/296/29 40/298/28
f 30/8/14 31/326/16 42/293/30 41/295/29
f 31/9/16 32/323/18 43/290/31 42/292/30
f 32/10/18 33/320/20 44/287/32 43/289/31
f 33/11/20 34/317/22 45/284/33 44/286/32
f 34/12/22 24/346/4 35/25/24 45/283/33
f 35/14/24 36/312/23 47/279/34 46/281/35
f 36/15/23 37/309/25 48/276/36 47/278/34
f 37/16/25 38/306/26 49/273/37 48/275/36
f 38/17/26 39/303/27 50/270/38 49/272/37
f 39/18/27 40/300/28 51/267/39 50/269/38
f 40/19/28 41/297/29 52/264/40 51/266/39
f 41/20/29 42/294/30 53/261/41 52/263/40
f 42/21/30 43/291/31 54/258/42 53/260/41
f 43/22/31 44/288/32 55/255/43 54/257/42
f 44/23/32 45/285/33 56/252/44 55/254/43
f 45/24/33 35/314/24 46/37/35 56/251/44
f 46/26/35 47/280/34 58/247/45 57/249/46
f 47/27/34 48/277/36 59/244/47 58/246/45
f 48/28/36 49/274/37 60/241/48 59/243/47
f 49/29/37 50/271/38 61/238/49 60/240/48
f 50/30/38 51/268/39 62/235/50 61/237/49
f 51/31/39 52/265/40 63/232/51 62/234/50
f 52/32/40 53/262/41 64/229/52 63/231/51
f 53/33/41 54/259/42 65/226/53 64/228/52
f 54/34/42 55/256/43 66/221/54 65/225/53
f 55/35/43 56/253/44 67/218/55 66/220/54
f 56/36/44 46/282/35 57/49/46 67/217/55
f 57/38/46 58/248/45 69/214/56 68/216/57
f 58/39/45 59/245/47 70/211/58 69/213/56
f 59/40/47 60/242/48 71/208/59 70/210/58
f 60/41/48 61/239/49 72/205/60 71/207/59
f 61/42/49 62/236/50 73/202/61 72/204/60
f 62/43/50 63/233/51 74/199/62 73/201/61
f 63/44/51 64/230/52 75/196/63 74/198/62
f 64/45/52 65/227/53 76/192/64 75/195/63
f 65/46/53 66/222/54 77/59/65 76/191/64
f 66/47/54 67/219/55 78/194/66 77/224/65
f 67/48/55 57/250/46 68/61/57 78/60/66
f 68/50/57 69/215/56 78/62/66
f 69/51/56 70/212/58 78/63/66
f 70/52/58 71/209/59 78/64/66
f 71/53/59 72/206/60 78/65/66
f 72/54/60 73/203/61 78/66/66
f 73/55/61 74/200/62 78/67/66
f 74/56/62 75/197/63 78/68/66
f 75/57/63 76/193/64 78/69/66
f 76/58/64 77/223/65 78/70/66
f 1/350/67 2/73/68 79/71/69
f 2/347/68 3/352/70 80/164/71 79/169/69
f 3/74/70 4/189/72 81/158/73 80/163/71
f 4/76/72 5/187/74 82/152/75 81/157/73
f 5/78/74 6/185/76 83/146/77 82/151/75
f 6/80/76 7/183/78 84/140/79 83/145/77
f 7/82/78 8/181/80 85/134/81 84/139/79
f 8/84/80 9/179/82 86/128/83 85/133/81
f 9/86/82 10/177/84 87/122/85 86/127/83
f 10/88/84 11/175/86 88/116/87 87/121/85
f 11/90/86 12/173/88 89/110/89 88/115/87
f 12/92/88 1/350/67 79/71/69 89/109/89
f 79/72/69 80/165/71 14/95/2 13/172/1
f 80/75/71 81/159/73 15/96/5 14/168/2
f 81/77/73 82/153/75 16/97/7 15/162/5
f 82/79/75 83/147/77 17/98/9 16/156/7
f 83/81/77 84/141/79 18/99/11 17/150/9
f 84/83/79 85/135/81 19/100/13 18/144/11
f 85/85/81 86/129/83 20/101/15 19/138/13
f 86/87/83 87/123/85 21/102/17 20/132/15
f 87/89/85 88/117/87 22/104/19 21/126/17
f 88/91/87 89/111/89 23/105/21 22/120/19
f 89/103/89 79/170/69 13/1/1 23/114/21
s off
f 2/106/90 1/107/91 90/348/92
f 1/93/93 12/349/94 11/174/95 10/176/96 9/178/97 8/180/98 7/182/99 6/184/100 5/186/101 4/188/102 3/190/103 2/351/104 90/108/105
